<svg id="kity_svg_6" xmlns="http://www.w3.org/2000/svg" xmlns:xlink="http://www.w3.org/1999/xlink" version="1.1" width="1448" height="1226" style="background: rgb(251, 251, 251); visibility: visible;" viewBox="0 0 1448 1226"><defs id="kity_defs_7"><linearGradient id="kity_linearGradient_17" x1="0" y1="0" x2="0" y2="1"><stop id="kity_stop_18" offset="0" stop-color="rgb(255, 255, 255)"></stop><stop id="kity_stop_19" offset="1" stop-color="rgb(204, 204, 204)"></stop></linearGradient><marker id="kity_marker_2" orient="auto" refX="6" refY="0" viewBox="-7 -7 14 14" markerWidth="7" markerHeight="7" markerUnits="userSpaceOnUse"><path id="kity_path_3" fill="rgb(115, 161, 191)" stroke="none" d="M6,0A6,6,0,1,1,-6,0A6,6,0,1,1,6,0"></path></marker></defs><g id="kity_g_8"><g id="minder1" text-rendering="optimize-speed"><g id="minder_connect_group1"><path id="kity_path_31" fill="none" stroke="rgb(115, 161, 191)" stroke-width="1" d="M116.50000635907054,612.5000026114285A214,530,0,0,1,330.50000635907054,82.5000026114285"></path><path id="kity_path_33" fill="none" stroke="rgb(115, 161, 191)" stroke-width="1" d="M429.50000635907054,82.5000026114285C449.50000635907054,82.5000026114285,449.50000635907054,30.5000026114285,469.50000635907054,30.5000026114285"></path><path id="kity_path_35" fill="none" stroke="rgb(115, 161, 191)" stroke-width="1" d="M825.5000063590705,30.5000026114285C845.5000063590705,30.5000026114285,845.5000063590705,30.5000026114285,865.5000063590705,30.5000026114285"></path><path id="kity_path_37" fill="none" stroke="rgb(115, 161, 191)" stroke-width="1" d="M429.50000635907054,82.5000026114285C449.50000635907054,82.5000026114285,449.50000635907054,82.5000026114285,469.50000635907054,82.5000026114285"></path><path id="kity_path_39" fill="none" stroke="rgb(115, 161, 191)" stroke-width="1" d="M665.5000063590705,82.5000026114285C685.5000063590705,82.5000026114285,685.5000063590705,82.5000026114285,705.5000063590705,82.5000026114285"></path><path id="kity_path_41" fill="none" stroke="rgb(115, 161, 191)" stroke-width="1" d="M429.50000635907054,82.5000026114285C449.50000635907054,82.5000026114285,449.50000635907054,134.5000026114285,469.50000635907054,134.5000026114285"></path><path id="kity_path_43" fill="none" stroke="rgb(115, 161, 191)" stroke-width="1" d="M721.5000063590705,134.5000026114285C741.5000063590705,134.5000026114285,741.5000063590705,134.5000026114285,761.5000063590705,134.5000026114285"></path><path id="kity_path_45" fill="none" stroke="rgb(115, 161, 191)" stroke-width="1" d="M116.50000635907054,612.5000026114285A214,143,0,0,1,330.50000635907054,469.5000026114285"></path><path id="kity_path_47" fill="none" stroke="rgb(115, 161, 191)" stroke-width="1" d="M429.50000635907054,469.5000026114285C449.50000635907054,469.5000026114285,449.50000635907054,248.5000026114285,469.50000635907054,248.5000026114285"></path><path id="kity_path_49" fill="none" stroke="rgb(115, 161, 191)" stroke-width="1" d="M515.5000063590705,248.5000026114285C535.5000063590705,248.5000026114285,535.5000063590705,196.5000026114285,555.5000063590705,196.5000026114285"></path><path id="kity_path_51" fill="none" stroke="rgb(115, 161, 191)" stroke-width="1" d="M515.5000063590705,248.5000026114285C535.5000063590705,248.5000026114285,535.5000063590705,248.5000026114285,555.5000063590705,248.5000026114285"></path><path id="kity_path_53" fill="none" stroke="rgb(115, 161, 191)" stroke-width="1" d="M515.5000063590705,248.5000026114285C535.5000063590705,248.5000026114285,535.5000063590705,300.5000026114285,555.5000063590705,300.5000026114285"></path><path id="kity_path_55" fill="none" stroke="rgb(115, 161, 191)" stroke-width="1" d="M429.50000635907054,469.5000026114285C449.50000635907054,469.5000026114285,449.50000635907054,690.5000026114285,469.50000635907054,690.5000026114285"></path><path id="kity_path_57" fill="none" stroke="rgb(115, 161, 191)" stroke-width="1" d="M515.5000063590705,690.5000026114285C535.5000063590705,690.5000026114285,535.5000063590705,352.5000026114285,555.5000063590705,352.5000026114285"></path><path id="kity_path_59" fill="none" stroke="rgb(115, 161, 191)" stroke-width="1" d="M960.5000063590705,352.5000026114285C980.5000063590705,352.5000026114285,980.5000063590705,352.5000026114285,1000.5000063590705,352.5000026114285"></path><path id="kity_path_61" fill="none" stroke="rgb(115, 161, 191)" stroke-width="1" d="M515.5000063590705,690.5000026114285C535.5000063590705,690.5000026114285,535.5000063590705,521.5000026114285,555.5000063590705,521.5000026114285"></path><path id="kity_path_63" fill="none" stroke="rgb(115, 161, 191)" stroke-width="1" d="M984.5000063590705,521.5000026114285C1004.5000063590705,521.5000026114285,1004.5000063590705,404.5000026114285,1024.5000063590705,404.5000026114285"></path><path id="kity_path_65" fill="none" stroke="rgb(115, 161, 191)" stroke-width="1" d="M984.5000063590705,521.5000026114285C1004.5000063590705,521.5000026114285,1004.5000063590705,638.5000026114285,1024.5000063590705,638.5000026114285"></path><path id="kity_path_67" fill="none" stroke="rgb(115, 161, 191)" stroke-width="1" d="M1094.5000063590705,638.5000026114285C1114.5000063590705,638.5000026114285,1114.5000063590705,456.5000026114285,1134.5000063590705,456.5000026114285"></path><path id="kity_path_69" fill="none" stroke="rgb(115, 161, 191)" stroke-width="1" d="M1094.5000063590705,638.5000026114285C1114.5000063590705,638.5000026114285,1114.5000063590705,508.5000026114285,1134.5000063590705,508.5000026114285"></path><path id="kity_path_71" fill="none" stroke="rgb(115, 161, 191)" stroke-width="1" d="M1094.5000063590705,638.5000026114285C1114.5000063590705,638.5000026114285,1114.5000063590705,560.5000026114285,1134.5000063590705,560.5000026114285"></path><path id="kity_path_73" fill="none" stroke="rgb(115, 161, 191)" stroke-width="1" d="M1094.5000063590705,638.5000026114285C1114.5000063590705,638.5000026114285,1114.5000063590705,612.5000026114285,1134.5000063590705,612.5000026114285"></path><path id="kity_path_75" fill="none" stroke="rgb(115, 161, 191)" stroke-width="1" d="M1094.5000063590705,638.5000026114285C1114.5000063590705,638.5000026114285,1114.5000063590705,664.5000026114285,1134.5000063590705,664.5000026114285"></path><path id="kity_path_77" fill="none" stroke="rgb(115, 161, 191)" stroke-width="1" d="M1094.5000063590705,638.5000026114285C1114.5000063590705,638.5000026114285,1114.5000063590705,716.5000026114285,1134.5000063590705,716.5000026114285"></path><path id="kity_path_79" fill="none" stroke="rgb(115, 161, 191)" stroke-width="1" d="M1094.5000063590705,638.5000026114285C1114.5000063590705,638.5000026114285,1114.5000063590705,768.5000026114285,1134.5000063590705,768.5000026114285"></path><path id="kity_path_81" fill="none" stroke="rgb(115, 161, 191)" stroke-width="1" d="M1094.5000063590705,638.5000026114285C1114.5000063590705,638.5000026114285,1114.5000063590705,820.5000026114285,1134.5000063590705,820.5000026114285"></path><path id="kity_path_83" fill="none" stroke="rgb(115, 161, 191)" stroke-width="1" d="M515.5000063590705,690.5000026114285C535.5000063590705,690.5000026114285,535.5000063590705,872.5000026114285,555.5000063590705,872.5000026114285"></path><path id="kity_path_85" fill="none" stroke="rgb(115, 161, 191)" stroke-width="1" d="M515.5000063590705,690.5000026114285C535.5000063590705,690.5000026114285,535.5000063590705,924.5000026114285,555.5000063590705,924.5000026114285"></path><path id="kity_path_87" fill="none" stroke="rgb(115, 161, 191)" stroke-width="1" d="M515.5000063590705,690.5000026114285C535.5000063590705,690.5000026114285,535.5000063590705,976.5000026114285,555.5000063590705,976.5000026114285"></path><path id="kity_path_89" fill="none" stroke="rgb(115, 161, 191)" stroke-width="1" d="M515.5000063590705,690.5000026114285C535.5000063590705,690.5000026114285,535.5000063590705,1028.5000026114285,555.5000063590705,1028.5000026114285"></path><path id="kity_path_91" fill="none" stroke="rgb(115, 161, 191)" stroke-width="1" d="M116.50000635907054,612.5000026114285A214,530,0,0,0,330.50000635907054,1142.5000026114285"></path><path id="kity_path_93" fill="none" stroke="rgb(115, 161, 191)" stroke-width="1" d="M433.50000635907054,1142.5000026114285C453.50000635907054,1142.5000026114285,453.50000635907054,1090.5000026114285,473.50000635907054,1090.5000026114285"></path><path id="kity_path_95" fill="none" stroke="rgb(115, 161, 191)" stroke-width="1" d="M433.50000635907054,1142.5000026114285C453.50000635907054,1142.5000026114285,453.50000635907054,1142.5000026114285,473.50000635907054,1142.5000026114285"></path><path id="kity_path_97" fill="none" stroke="rgb(115, 161, 191)" stroke-width="1" d="M433.50000635907054,1142.5000026114285C453.50000635907054,1142.5000026114285,453.50000635907054,1194.5000026114285,473.50000635907054,1194.5000026114285"></path></g><g id="minder_node1"><path id="node_outline1" fill="rgb(115, 161, 191)" stroke="rgb(57, 80, 96)" d="M25.50000635907054,592.5000026114285h182a5,5,0,0,1,5,5v30a5,5,0,0,1,-5,5h-182a5,5,0,0,1,-5,-5v-30a5,5,0,0,1,5,-5z" stroke-width="3"></path><g id="node_text1" fill="white"><text id="kity_text_22" text-rendering="inherit" font-size="16" dy=".8em" y="602.1000025511615" x="44.50000635907054">云星空BOS二次开发</text></g></g><g id="kity_g_12"><path id="kity_path_13" fill="none" stroke="none" d="M44.50000635907054,612.5000026114285h0v0h0z"></path></g><g id="kity_g_14"><path id="kity_path_15" fill="none" stroke="none" d="M44.50000635907054,612.5000026114285h0v0h0z"></path><path id="kity_path_16" fill="none" stroke="none"></path></g><g id="minder_node2"><g id="node_expander7" style="cursor: pointer;"><path id="kity_path_219" fill="white" stroke="gray" d="M331.5000084526837,82.49999866262078A6,6,0,1,1,319.5000084526837,82.49999866262078A6,6,0,1,1,331.5000084526837,82.49999866262078"></path><path id="kity_path_220" fill="none" stroke="gray" d="M321.0000084526837,82.49999866262078L330.0000084526837,82.49999866262078"></path></g><path id="node_outline8" fill="rgb(238, 243, 246)" stroke="rgb(115, 161, 191)" d="M335.50000865384936,69.49999866262078h91a3,3,0,0,1,3,3v20a3,3,0,0,1,-3,3h-91a3,3,0,0,1,-3,-3v-20a3,3,0,0,1,3,-3z" stroke-width="1"></path><g id="node_text8" fill="black"><text id="kity_text_111" text-rendering="inherit" font-size="14" dy=".8em" y="73.39999868936009" x="352.50000865384936">安装部署</text></g></g><g id="minder_node3"><g id="node_expander2" style="cursor: pointer;"><path id="kity_path_204" fill="white" stroke="gray" d="M469.5000094808638,30.499998275190592A6,6,0,1,1,457.5000094808638,30.499998275190592A6,6,0,1,1,469.5000094808638,30.499998275190592"></path><path id="kity_path_205" fill="none" stroke="gray" d="M459.0000094808638,30.499998275190592L468.0000094808638,30.499998275190592"></path></g><path id="node_outline3" fill="none" stroke="none" d="M474.5000096000731,19.499998275190592h346a5,5,0,0,1,5,5v12a5,5,0,0,1,-5,5h-346a5,5,0,0,1,-5,-5v-12a5,5,0,0,1,5,-5z"></path><g id="node_text3" fill="black"><text id="kity_text_101" text-rendering="inherit" font-size="12" dy=".8em" y="22.699998388936123" x="479.5000096000731">开发工具：Visual Studio2022 + .net Framework 4.0 + IIS6.0</text></g></g><g id="minder_node4"><g id="node_expander1" display="none" style="cursor: pointer;"><path id="kity_path_201" fill="white" stroke="gray" d="M865.5000124312937,30.499998275190592A6,6,0,1,1,853.5000124312937,30.499998275190592A6,6,0,1,1,865.5000124312937,30.499998275190592"></path><path id="kity_path_202" fill="none" stroke="gray"></path></g><path id="node_outline2" fill="none" stroke="none" d="M870.500012550503,19.499998275190592h367a5,5,0,0,1,5,5v12a5,5,0,0,1,-5,5h-367a5,5,0,0,1,-5,-5v-12a5,5,0,0,1,5,-5z"></path><g id="node_text2" fill="black"><text id="kity_text_99" text-rendering="inherit" font-size="12" dy=".8em" y="22.699998388936123" x="875.500012550503">VS2022版本以后不再支持.net Framework 4.0 可通过VS2019安装</text></g></g><g id="minder_node5"><g id="node_expander4" style="cursor: pointer;"><path id="kity_path_210" fill="white" stroke="gray" d="M469.5000094808638,82.49999866262078A6,6,0,1,1,457.5000094808638,82.49999866262078A6,6,0,1,1,469.5000094808638,82.49999866262078"></path><path id="kity_path_211" fill="none" stroke="gray" d="M459.0000094808638,82.49999866262078L468.0000094808638,82.49999866262078"></path></g><path id="node_outline5" fill="none" stroke="none" d="M474.5000096000731,71.49999866262078h186a5,5,0,0,1,5,5v12a5,5,0,0,1,-5,5h-186a5,5,0,0,1,-5,-5v-12a5,5,0,0,1,5,-5z"></path><g id="node_text5" fill="black"><text id="kity_text_105" text-rendering="inherit" font-size="12" dy=".8em" y="74.69999877636631" x="479.5000096000731">数据库：SQL Server2014及以上</text></g></g><g id="minder_node6"><g id="node_expander3" display="none" style="cursor: pointer;"><path id="kity_path_207" fill="white" stroke="gray" d="M705.5000112392008,82.49999866262078A6,6,0,1,1,693.5000112392008,82.49999866262078A6,6,0,1,1,705.5000112392008,82.49999866262078"></path><path id="kity_path_208" fill="none" stroke="gray"></path></g><path id="node_outline4" fill="none" stroke="none" d="M710.5000113584101,71.49999866262078h511a5,5,0,0,1,5,5v12a5,5,0,0,1,-5,5h-511a5,5,0,0,1,-5,-5v-12a5,5,0,0,1,5,-5z"></path><g id="node_text4" fill="black"><text id="kity_text_103" text-rendering="inherit" font-size="12" dy=".8em" y="74.69999877636631" x="715.5000113584101">开放本地服务器端口 另win11暂不支持SQL Server所有版本系统盘安装 一定要装在其他硬盘上</text></g></g><g id="minder_node7"><g id="node_expander6" style="cursor: pointer;"><path id="kity_path_216" fill="white" stroke="gray" d="M469.5000094808638,134.49999905005097A6,6,0,1,1,457.5000094808638,134.49999905005097A6,6,0,1,1,469.5000094808638,134.49999905005097"></path><path id="kity_path_217" fill="none" stroke="gray" d="M459.0000094808638,134.49999905005097L468.0000094808638,134.49999905005097"></path></g><path id="node_outline7" fill="none" stroke="none" d="M474.5000096000731,123.49999905005097h242a5,5,0,0,1,5,5v12a5,5,0,0,1,-5,5h-242a5,5,0,0,1,-5,-5v-12a5,5,0,0,1,5,-5z"></path><g id="node_text7" fill="black"><text id="kity_text_109" text-rendering="inherit" font-size="12" dy=".8em" y="126.69999916379652" x="479.5000096000731">金蝶云星空企业版7.5+云星空集成开发平台</text></g></g><g id="minder_node8"><g id="node_expander5" display="none" style="cursor: pointer;"><path id="kity_path_213" fill="white" stroke="gray" d="M761.5000116564333,134.49999905005097A6,6,0,1,1,749.5000116564333,134.49999905005097A6,6,0,1,1,761.5000116564333,134.49999905005097"></path><path id="kity_path_214" fill="none" stroke="gray"></path></g><path id="node_outline6" fill="none" stroke="none" d="M766.5000117756426,123.49999905005097h343a5,5,0,0,1,5,5v12a5,5,0,0,1,-5,5h-343a5,5,0,0,1,-5,-5v-12a5,5,0,0,1,5,-5z"></path><g id="node_text6" fill="black"><text id="kity_text_107" text-rendering="inherit" font-size="12" dy=".8em" y="126.69999916379652" x="771.5000117756426">win家庭版可跳过IIS安装验证 安装目录给予Everyone访问权限</text></g></g><g id="minder_node9"><g id="node_expander30" style="cursor: pointer;"><path id="kity_path_288" fill="white" stroke="gray" d="M331.5000084526837,469.5000015459955A6,6,0,1,1,319.5000084526837,469.5000015459955A6,6,0,1,1,331.5000084526837,469.5000015459955"></path><path id="kity_path_289" fill="none" stroke="gray" d="M321.0000084526837,469.5000015459955L330.0000084526837,469.5000015459955"></path></g><path id="node_outline31" fill="rgb(238, 243, 246)" stroke="rgb(115, 161, 191)" d="M335.50000865384936,456.5000015459955h91a3,3,0,0,1,3,3v20a3,3,0,0,1,-3,3h-91a3,3,0,0,1,-3,-3v-20a3,3,0,0,1,3,-3z" stroke-width="1"></path><g id="node_text31" fill="black"><text id="kity_text_157" text-rendering="inherit" font-size="14" dy=".8em" y="460.40000157273477" x="352.50000865384936">业务对象</text></g></g><g id="minder_node10"><g id="node_expander11" style="cursor: pointer;"><path id="kity_path_231" fill="white" stroke="gray" d="M469.5000094808638,248.49999989941716A6,6,0,1,1,457.5000094808638,248.49999989941716A6,6,0,1,1,469.5000094808638,248.49999989941716"></path><path id="kity_path_232" fill="none" stroke="gray" d="M459.0000094808638,248.49999989941716L468.0000094808638,248.49999989941716"></path></g><path id="node_outline12" fill="none" stroke="none" d="M474.5000096000731,237.49999989941716h36a5,5,0,0,1,5,5v12a5,5,0,0,1,-5,5h-36a5,5,0,0,1,-5,-5v-12a5,5,0,0,1,5,-5z"></path><g id="node_text12" fill="black"><text id="kity_text_119" text-rendering="inherit" font-size="12" dy=".8em" y="240.7000000131627" x="479.5000096000731">创建</text></g></g><g id="minder_node11"><g id="node_expander8" display="none" style="cursor: pointer;"><path id="kity_path_222" fill="white" stroke="gray" d="M555.5000101216137,196.49999951198697A6,6,0,1,1,543.5000101216137,196.49999951198697A6,6,0,1,1,555.5000101216137,196.49999951198697"></path><path id="kity_path_223" fill="none" stroke="gray"></path></g><path id="node_outline9" fill="none" stroke="none" d="M560.500010240823,185.49999951198697h149a5,5,0,0,1,5,5v12a5,5,0,0,1,-5,5h-149a5,5,0,0,1,-5,-5v-12a5,5,0,0,1,5,-5z"></path><g id="node_text9" fill="black"><text id="kity_text_113" text-rendering="inherit" font-size="12" dy=".8em" y="188.69999962573252" x="565.500010240823">新建-创建全新的业务对象</text></g></g><g id="minder_node12"><g id="node_expander9" display="none" style="cursor: pointer;"><path id="kity_path_225" fill="white" stroke="gray" d="M555.5000101216137,248.49999989941716A6,6,0,1,1,543.5000101216137,248.49999989941716A6,6,0,1,1,555.5000101216137,248.49999989941716"></path><path id="kity_path_226" fill="none" stroke="gray"></path></g><path id="node_outline10" fill="none" stroke="none" d="M560.500010240823,237.49999989941716h260a5,5,0,0,1,5,5v12a5,5,0,0,1,-5,5h-260a5,5,0,0,1,-5,-5v-12a5,5,0,0,1,5,-5z"></path><g id="node_text10" fill="black"><text id="kity_text_115" text-rendering="inherit" font-size="12" dy=".8em" y="240.7000000131627" x="565.500010240823">复制-复制现有的业务对象;创建出新的业务对象</text></g></g><g id="minder_node13"><g id="node_expander10" display="none" style="cursor: pointer;"><path id="kity_path_228" fill="white" stroke="gray" d="M555.5000101216137,300.50000028684735A6,6,0,1,1,543.5000101216137,300.50000028684735A6,6,0,1,1,555.5000101216137,300.50000028684735"></path><path id="kity_path_229" fill="none" stroke="gray"></path></g><path id="node_outline11" fill="none" stroke="none" d="M560.500010240823,289.50000028684735h401a5,5,0,0,1,5,5v12a5,5,0,0,1,-5,5h-401a5,5,0,0,1,-5,-5v-12a5,5,0,0,1,5,-5z"></path><g id="node_text11" fill="black"><text id="kity_text_117" text-rendering="inherit" font-size="12" dy=".8em" y="292.7000004005929" x="565.500010240823">继承-继承原对象的元数据、界面元素以及相关属性，创建出新的业务对象</text></g></g><g id="minder_node14"><g id="node_expander29" style="cursor: pointer;"><path id="kity_path_285" fill="white" stroke="gray" d="M469.5000094808638,690.5000031925738A6,6,0,1,1,457.5000094808638,690.5000031925738A6,6,0,1,1,469.5000094808638,690.5000031925738"></path><path id="kity_path_286" fill="none" stroke="gray" d="M459.0000094808638,690.5000031925738L468.0000094808638,690.5000031925738"></path></g><path id="node_outline30" fill="none" stroke="none" d="M474.5000096000731,679.5000031925738h36a5,5,0,0,1,5,5v12a5,5,0,0,1,-5,5h-36a5,5,0,0,1,-5,-5v-12a5,5,0,0,1,5,-5z"></path><g id="node_text30" fill="black"><text id="kity_text_155" text-rendering="inherit" font-size="12" dy=".8em" y="682.7000033063193" x="479.5000096000731">类型</text></g></g><g id="minder_node15"><g id="node_expander13" style="cursor: pointer;"><path id="kity_path_237" fill="white" stroke="gray" d="M555.5000101216137,352.50000067427754A6,6,0,1,1,543.5000101216137,352.50000067427754A6,6,0,1,1,555.5000101216137,352.50000067427754"></path><path id="kity_path_238" fill="none" stroke="gray" d="M545.0000101216137,352.50000067427754L554.0000101216137,352.50000067427754"></path></g><path id="node_outline14" fill="none" stroke="none" d="M560.500010240823,341.50000067427754h395a5,5,0,0,1,5,5v12a5,5,0,0,1,-5,5h-395a5,5,0,0,1,-5,-5v-12a5,5,0,0,1,5,-5z"></path><g id="node_text14" fill="black"><text id="kity_text_123" text-rendering="inherit" font-size="12" dy=".8em" y="344.7000007880231" x="565.500010240823">基础资料（部门、员工、供应商、客户、物料、岗位信息、费用项目等）</text></g></g><g id="minder_node16"><g id="node_expander12" display="none" style="cursor: pointer;"><path id="kity_path_234" fill="white" stroke="gray" d="M1000.5000134371221,352.50000067427754A6,6,0,1,1,988.5000134371221,352.50000067427754A6,6,0,1,1,1000.5000134371221,352.50000067427754"></path><path id="kity_path_235" fill="none" stroke="gray"></path></g><path id="node_outline13" fill="none" stroke="none" d="M1005.5000135563314,341.50000067427754h166a5,5,0,0,1,5,5v12a5,5,0,0,1,-5,5h-166a5,5,0,0,1,-5,-5v-12a5,5,0,0,1,5,-5z"></path><g id="node_text13" fill="black"><text id="kity_text_121" text-rendering="inherit" font-size="12" dy=".8em" y="344.7000007880231" x="1010.5000135563314">可进行组织隔离（BOS模板）</text></g></g><g id="minder_node17"><g id="node_expander24" style="cursor: pointer;"><path id="kity_path_270" fill="white" stroke="gray" d="M555.5000101216137,521.5000019334257A6,6,0,1,1,543.5000101216137,521.5000019334257A6,6,0,1,1,555.5000101216137,521.5000019334257"></path><path id="kity_path_271" fill="none" stroke="gray" d="M545.0000101216137,521.5000019334257L554.0000101216137,521.5000019334257"></path></g><path id="node_outline25" fill="none" stroke="none" d="M560.500010240823,510.50000193342566h419a5,5,0,0,1,5,5v12a5,5,0,0,1,-5,5h-419a5,5,0,0,1,-5,-5v-12a5,5,0,0,1,5,-5z"></path><g id="node_text25" fill="black"><text id="kity_text_145" text-rendering="inherit" font-size="12" dy=".8em" y="513.7000020471712" x="565.500010240823">单据（同于保存业务流程中发生的数据，体现各个业务流程之间的逻辑关系）</text></g></g><g id="minder_node18"><g id="node_expander14" display="none" style="cursor: pointer;"><path id="kity_path_240" fill="white" stroke="gray" d="M1024.500013615936,404.50000106170774A6,6,0,1,1,1012.500013615936,404.50000106170774A6,6,0,1,1,1024.500013615936,404.50000106170774"></path><path id="kity_path_241" fill="none" stroke="gray"></path></g><path id="node_outline15" fill="none" stroke="none" d="M1029.5000137351453,393.50000106170774h394a5,5,0,0,1,5,5v12a5,5,0,0,1,-5,5h-394a5,5,0,0,1,-5,-5v-12a5,5,0,0,1,5,-5z"></path><g id="node_text15" fill="black"><text id="kity_text_125" text-rendering="inherit" font-size="12" dy=".8em" y="396.7000011754533" x="1034.5000137351453">字段（有一些语义的逻辑元素，如日期、小数；有业务含义的常规字段）</text></g></g><g id="minder_node19"><g id="node_expander23" style="cursor: pointer;"><path id="kity_path_267" fill="white" stroke="gray" d="M1024.500013615936,638.5000028051436A6,6,0,1,1,1012.500013615936,638.5000028051436A6,6,0,1,1,1024.500013615936,638.5000028051436"></path><path id="kity_path_268" fill="none" stroke="gray" d="M1014.000013615936,638.5000028051436L1023.000013615936,638.5000028051436"></path></g><path id="node_outline24" fill="none" stroke="none" d="M1029.5000137351453,627.5000028051436h60a5,5,0,0,1,5,5v12a5,5,0,0,1,-5,5h-60a5,5,0,0,1,-5,-5v-12a5,5,0,0,1,5,-5z"></path><g id="node_text24" fill="black"><text id="kity_text_143" text-rendering="inherit" font-size="12" dy=".8em" y="630.7000029188891" x="1034.5000137351453">单据设置</text></g></g><g id="minder_node20"><g id="node_expander15" display="none" style="cursor: pointer;"><path id="kity_path_243" fill="white" stroke="gray" d="M1134.5000144355,456.5000014491379A6,6,0,1,1,1122.5000144355,456.5000014491379A6,6,0,1,1,1134.5000144355,456.5000014491379"></path><path id="kity_path_244" fill="none" stroke="gray"></path></g><path id="node_outline16" fill="none" stroke="none" d="M1139.5000145547092,445.5000014491379h59a5,5,0,0,1,5,5v12a5,5,0,0,1,-5,5h-59a5,5,0,0,1,-5,-5v-12a5,5,0,0,1,5,-5z"></path><g id="node_text16" fill="black"><text id="kity_text_127" text-rendering="inherit" font-size="12" dy=".8em" y="448.7000015628835" x="1144.5000145547092">编码规则</text></g></g><g id="minder_node21"><g id="node_expander16" display="none" style="cursor: pointer;"><path id="kity_path_246" fill="white" stroke="gray" d="M1134.5000144355,508.5000018365681A6,6,0,1,1,1122.5000144355,508.5000018365681A6,6,0,1,1,1134.5000144355,508.5000018365681"></path><path id="kity_path_247" fill="none" stroke="gray"></path></g><path id="node_outline17" fill="none" stroke="none" d="M1139.5000145547092,497.5000018365681h60a5,5,0,0,1,5,5v12a5,5,0,0,1,-5,5h-60a5,5,0,0,1,-5,-5v-12a5,5,0,0,1,5,-5z"></path><g id="node_text17" fill="black"><text id="kity_text_129" text-rendering="inherit" font-size="12" dy=".8em" y="500.70000195031366" x="1144.5000145547092">操作列表</text></g></g><g id="minder_node22"><g id="node_expander17" display="none" style="cursor: pointer;"><path id="kity_path_249" fill="white" stroke="gray" d="M1134.5000144355,560.5000022239983A6,6,0,1,1,1122.5000144355,560.5000022239983A6,6,0,1,1,1134.5000144355,560.5000022239983"></path><path id="kity_path_250" fill="none" stroke="gray"></path></g><path id="node_outline18" fill="none" stroke="none" d="M1139.5000145547092,549.5000022239983h60a5,5,0,0,1,5,5v12a5,5,0,0,1,-5,5h-60a5,5,0,0,1,-5,-5v-12a5,5,0,0,1,5,-5z"></path><g id="node_text18" fill="black"><text id="kity_text_131" text-rendering="inherit" font-size="12" dy=".8em" y="552.7000023377439" x="1144.5000145547092">定义事件</text></g></g><g id="minder_node23"><g id="node_expander18" display="none" style="cursor: pointer;"><path id="kity_path_252" fill="white" stroke="gray" d="M1134.5000144355,612.5000026114285A6,6,0,1,1,1122.5000144355,612.5000026114285A6,6,0,1,1,1134.5000144355,612.5000026114285"></path><path id="kity_path_253" fill="none" stroke="gray"></path></g><path id="node_outline19" fill="none" stroke="none" d="M1139.5000145547092,601.5000026114285h60a5,5,0,0,1,5,5v12a5,5,0,0,1,-5,5h-60a5,5,0,0,1,-5,-5v-12a5,5,0,0,1,5,-5z"></path><g id="node_text19" fill="black"><text id="kity_text_133" text-rendering="inherit" font-size="12" dy=".8em" y="604.700002725174" x="1144.5000145547092">单据状态</text></g></g><g id="minder_node24"><g id="node_expander19" display="none" style="cursor: pointer;"><path id="kity_path_255" fill="white" stroke="gray" d="M1134.5000144355,664.5000029988587A6,6,0,1,1,1122.5000144355,664.5000029988587A6,6,0,1,1,1134.5000144355,664.5000029988587"></path><path id="kity_path_256" fill="none" stroke="gray"></path></g><path id="node_outline20" fill="none" stroke="none" d="M1139.5000145547092,653.5000029988587h58a5,5,0,0,1,5,5v12a5,5,0,0,1,-5,5h-58a5,5,0,0,1,-5,-5v-12a5,5,0,0,1,5,-5z"></path><g id="node_text20" fill="black"><text id="kity_text_135" text-rendering="inherit" font-size="12" dy=".8em" y="656.7000031126042" x="1144.5000145547092">网络控制</text></g></g><g id="minder_node25"><g id="node_expander20" display="none" style="cursor: pointer;"><path id="kity_path_258" fill="white" stroke="gray" d="M1134.5000144355,716.5000033862889A6,6,0,1,1,1122.5000144355,716.5000033862889A6,6,0,1,1,1134.5000144355,716.5000033862889"></path><path id="kity_path_259" fill="none" stroke="gray"></path></g><path id="node_outline21" fill="none" stroke="none" d="M1139.5000145547092,705.5000033862889h60a5,5,0,0,1,5,5v12a5,5,0,0,1,-5,5h-60a5,5,0,0,1,-5,-5v-12a5,5,0,0,1,5,-5z"></path><g id="node_text21" fill="black"><text id="kity_text_137" text-rendering="inherit" font-size="12" dy=".8em" y="708.7000035000344" x="1144.5000145547092">定义插件</text></g></g><g id="minder_node26"><g id="node_expander21" display="none" style="cursor: pointer;"><path id="kity_path_261" fill="white" stroke="gray" d="M1134.5000144355,768.5000037737191A6,6,0,1,1,1122.5000144355,768.5000037737191A6,6,0,1,1,1134.5000144355,768.5000037737191"></path><path id="kity_path_262" fill="none" stroke="gray"></path></g><path id="node_outline22" fill="none" stroke="none" d="M1139.5000145547092,757.5000037737191h60a5,5,0,0,1,5,5v12a5,5,0,0,1,-5,5h-60a5,5,0,0,1,-5,-5v-12a5,5,0,0,1,5,-5z"></path><g id="node_text22" fill="black"><text id="kity_text_139" text-rendering="inherit" font-size="12" dy=".8em" y="760.7000038874646" x="1144.5000145547092">表单服务</text></g></g><g id="minder_node27"><g id="node_expander22" display="none" style="cursor: pointer;"><path id="kity_path_264" fill="white" stroke="gray" d="M1134.5000144355,820.5000041611493A6,6,0,1,1,1122.5000144355,820.5000041611493A6,6,0,1,1,1134.5000144355,820.5000041611493"></path><path id="kity_path_265" fill="none" stroke="gray"></path></g><path id="node_outline23" fill="none" stroke="none" d="M1139.5000145547092,809.5000041611493h59a5,5,0,0,1,5,5v12a5,5,0,0,1,-5,5h-59a5,5,0,0,1,-5,-5v-12a5,5,0,0,1,5,-5z"></path><g id="node_text23" fill="black"><text id="kity_text_141" text-rendering="inherit" font-size="12" dy=".8em" y="812.7000042748948" x="1144.5000145547092">单据视图</text></g></g><g id="minder_node28"><g id="node_expander25" display="none" style="cursor: pointer;"><path id="kity_path_273" fill="white" stroke="gray" d="M555.5000101216137,872.5000045485795A6,6,0,1,1,543.5000101216137,872.5000045485795A6,6,0,1,1,555.5000101216137,872.5000045485795"></path><path id="kity_path_274" fill="none" stroke="gray"></path></g><path id="node_outline26" fill="none" stroke="none" d="M560.500010240823,861.5000045485795h166a5,5,0,0,1,5,5v12a5,5,0,0,1,-5,5h-166a5,5,0,0,1,-5,-5v-12a5,5,0,0,1,5,-5z"></path><g id="node_text26" fill="black"><text id="kity_text_147" text-rendering="inherit" font-size="12" dy=".8em" y="864.700004662325" x="565.500010240823">动态表单（操作和修改界面）</text></g></g><g id="minder_node29"><g id="node_expander26" display="none" style="cursor: pointer;"><path id="kity_path_276" fill="white" stroke="gray" d="M555.5000101216137,924.5000049360096A6,6,0,1,1,543.5000101216137,924.5000049360096A6,6,0,1,1,555.5000101216137,924.5000049360096"></path><path id="kity_path_277" fill="none" stroke="gray"></path></g><path id="node_outline27" fill="none" stroke="none" d="M560.500010240823,913.5000049360096h131a5,5,0,0,1,5,5v12a5,5,0,0,1,-5,5h-131a5,5,0,0,1,-5,-5v-12a5,5,0,0,1,5,-5z"></path><g id="node_text27" fill="black"><text id="kity_text_149" text-rendering="inherit" font-size="12" dy=".8em" y="916.7000050497552" x="565.500010240823">系统参数（选项控制）</text></g></g><g id="minder_node30"><g id="node_expander27" display="none" style="cursor: pointer;"><path id="kity_path_279" fill="white" stroke="gray" d="M555.5000101216137,976.5000053234398A6,6,0,1,1,543.5000101216137,976.5000053234398A6,6,0,1,1,555.5000101216137,976.5000053234398"></path><path id="kity_path_280" fill="none" stroke="gray"></path></g><path id="node_outline28" fill="none" stroke="none" d="M560.500010240823,965.5000053234398h191a5,5,0,0,1,5,5v12a5,5,0,0,1,-5,5h-191a5,5,0,0,1,-5,-5v-12a5,5,0,0,1,5,-5z"></path><g id="node_text28" fill="black"><text id="kity_text_151" text-rendering="inherit" font-size="12" dy=".8em" y="968.7000054371854" x="565.500010240823">弹性域（根据需求扩展字段组合）</text></g></g><g id="minder_node31"><g id="node_expander28" display="none" style="cursor: pointer;"><path id="kity_path_282" fill="white" stroke="gray" d="M555.5000101216137,1028.50000571087A6,6,0,1,1,543.5000101216137,1028.50000571087A6,6,0,1,1,555.5000101216137,1028.50000571087"></path><path id="kity_path_283" fill="none" stroke="gray"></path></g><path id="node_outline29" fill="none" stroke="none" d="M560.500010240823,1017.50000571087h36a5,5,0,0,1,5,5v12a5,5,0,0,1,-5,5h-36a5,5,0,0,1,-5,-5v-12a5,5,0,0,1,5,-5z"></path><g id="node_text29" fill="black"><text id="kity_text_153" text-rendering="inherit" font-size="12" dy=".8em" y="1020.7000058246156" x="565.500010240823">账表</text></g></g><g id="minder_node32"><g id="node_expander34" style="cursor: pointer;"><path id="kity_path_300" fill="white" stroke="gray" d="M331.5000084526837,1142.5000065602362A6,6,0,1,1,319.5000084526837,1142.5000065602362A6,6,0,1,1,331.5000084526837,1142.5000065602362"></path><path id="kity_path_301" fill="none" stroke="gray" d="M321.0000084526837,1142.5000065602362L330.0000084526837,1142.5000065602362"></path></g><path id="node_outline35" fill="rgb(238, 243, 246)" stroke="rgb(115, 161, 191)" d="M335.50000865384936,1129.5000065602362h95a3,3,0,0,1,3,3v20a3,3,0,0,1,-3,3h-95a3,3,0,0,1,-3,-3v-20a3,3,0,0,1,3,-3z" stroke-width="1"></path><g id="node_text35" fill="black"><text id="kity_text_165" text-rendering="inherit" font-size="14" dy=".8em" y="1133.4000065869755" x="352.50000865384936">Web插件</text></g></g><g id="minder_node33"><g id="node_expander31" display="none" style="cursor: pointer;"><path id="kity_path_291" fill="white" stroke="gray" d="M473.50000951066613,1090.500006172806A6,6,0,1,1,461.50000951066613,1090.500006172806A6,6,0,1,1,473.50000951066613,1090.500006172806"></path><path id="kity_path_292" fill="none" stroke="gray"></path></g><path id="node_outline32" fill="none" stroke="none" d="M478.5000096298754,1079.500006172806h60a5,5,0,0,1,5,5v12a5,5,0,0,1,-5,5h-60a5,5,0,0,1,-5,-5v-12a5,5,0,0,1,5,-5z"></path><g id="node_text32" fill="black"><text id="kity_text_159" text-rendering="inherit" font-size="12" dy=".8em" y="1082.7000062865516" x="483.5000096298754">表单插件</text></g></g><g id="minder_node34"><g id="node_expander32" display="none" style="cursor: pointer;"><path id="kity_path_294" fill="white" stroke="gray" d="M473.50000951066613,1142.5000065602362A6,6,0,1,1,461.50000951066613,1142.5000065602362A6,6,0,1,1,473.50000951066613,1142.5000065602362"></path><path id="kity_path_295" fill="none" stroke="gray"></path></g><path id="node_outline33" fill="none" stroke="none" d="M478.5000096298754,1131.5000065602362h60a5,5,0,0,1,5,5v12a5,5,0,0,1,-5,5h-60a5,5,0,0,1,-5,-5v-12a5,5,0,0,1,5,-5z"></path><g id="node_text33" fill="black"><text id="kity_text_161" text-rendering="inherit" font-size="12" dy=".8em" y="1134.7000066739818" x="483.5000096298754">列表插件</text></g></g><g id="minder_node35"><g id="node_expander33" display="none" style="cursor: pointer;"><path id="kity_path_297" fill="white" stroke="gray" d="M473.50000951066613,1194.5000069476664A6,6,0,1,1,461.50000951066613,1194.5000069476664A6,6,0,1,1,473.50000951066613,1194.5000069476664"></path><path id="kity_path_298" fill="none" stroke="gray"></path></g><path id="node_outline34" fill="none" stroke="none" d="M478.5000096298754,1183.5000069476664h84a5,5,0,0,1,5,5v12a5,5,0,0,1,-5,5h-84a5,5,0,0,1,-5,-5v-12a5,5,0,0,1,5,-5z"></path><g id="node_text34" fill="black"><text id="kity_text_163" text-rendering="inherit" font-size="12" dy=".8em" y="1186.700007061412" x="483.5000096298754">表单构建插件</text></g></g></g></g></svg>